HIERARCHY
ROOT root
{
	OFFSET	0	13.1	24.9
	CHANNELS 6  Xposition Yposition Zposition Xrotation Yrotation Zrotation
	JOINT spine_1
	{
		OFFSET	0	9.99999	0
		CHANNELS 3  Xrotation Yrotation Zrotation
		JOINT spine_2
		{
			OFFSET	0	112	-10
			CHANNELS 3  Xrotation Yrotation Zrotation
			JOINT spine_3
			{
				OFFSET	0	206.5	19.3
				CHANNELS 3  Xrotation Yrotation Zrotation
				JOINT spine_4
				{
					OFFSET	0	110.4	14.6
					CHANNELS 3  Xrotation Yrotation Zrotation
					JOINT neck_1
					{
						OFFSET	0	71.8	-50.3
						CHANNELS 3  Xrotation Yrotation Zrotation
						JOINT neck_2
						{
							OFFSET	0	86.2	-25.8
							CHANNELS 3  Xrotation Yrotation Zrotation
							JOINT head_ee
							{
								OFFSET	0	179.8	-8.7
								CHANNELS 3  Xrotation Yrotation Zrotation
								End Site
								{
									OFFSET	1	0	0
								}
							}
						}
					}
					JOINT left_clavicle
					{
						OFFSET	-43.2	22.4	-70.8
						CHANNELS 3  Xrotation Yrotation Zrotation
						JOINT left_shoulder
						{
							OFFSET	-93.9	-5.79999	48.7
							CHANNELS 3  Xrotation Yrotation Zrotation
							JOINT left_elbow
							{
								OFFSET	-291.4	-30.8	15.2
								CHANNELS 3  Xrotation Yrotation Zrotation
								JOINT left_lowarm_twist
								{
									OFFSET	-110.7	-3.89999	13.6
									CHANNELS 3  Xrotation Yrotation Zrotation
									JOINT left_hand
									{
										OFFSET	-110.7	-3.89999	13.6
										CHANNELS 3  Xrotation Yrotation Zrotation
										JOINT left_ee
										{
											OFFSET	-80.8	-5.10001	12.1
											CHANNELS 3  Xrotation Yrotation Zrotation
											End Site
											{
												OFFSET	1	0	0
											}
										}
									}
								}
							}
						}
					}
					JOINT right_clavicle
					{
						OFFSET	43.2	22.4	-70.8
						CHANNELS 3  Xrotation Yrotation Zrotation
						JOINT right_shoulder
						{
							OFFSET	93.9	-5.79999	48.7
							CHANNELS 3  Xrotation Yrotation Zrotation
							JOINT right_elbow
							{
								OFFSET	291.4	-30.8	15.2
								CHANNELS 3  Xrotation Yrotation Zrotation
								JOINT right_lowarm_twist
								{
									OFFSET	110.7	-3.89999	13.6
									CHANNELS 3  Xrotation Yrotation Zrotation
									JOINT right_hand
									{
										OFFSET	110.7	-3.89999	13.6
										CHANNELS 3  Xrotation Yrotation Zrotation
										JOINT right_ee
										{
											OFFSET	80.8	-5.10001	12.1
											CHANNELS 3  Xrotation Yrotation Zrotation
											End Site
											{
												OFFSET	1	0	0
											}
										}
									}
								}
							}
						}
					}
				}
			}
		}
	}
	JOINT left_hip
	{
		OFFSET	-82.8	-127.5	0.300001
		CHANNELS 3  Xrotation Yrotation Zrotation
		JOINT left_knee
		{
			OFFSET	-28.2	-396.7	2.2
			CHANNELS 3  Xrotation Yrotation Zrotation
			JOINT left_ankle
			{
				OFFSET	-11.7	-411.3	35.4
				CHANNELS 3  Xrotation Yrotation Zrotation
				JOINT left_toes
				{
					OFFSET	0	-60	-88.6
					CHANNELS 3  Xrotation Yrotation Zrotation
					JOINT left_foot_ee
					{
						OFFSET	-22.5	-16.5	-42.2
						CHANNELS 3  Xrotation Yrotation Zrotation
						End Site
						{
							OFFSET	1	0	0
						}
					}
				}
			}
		}
	}
	JOINT right_hip
	{
		OFFSET	82.8	-127.5	0.300001
		CHANNELS 3  Xrotation Yrotation Zrotation
		JOINT right_knee
		{
			OFFSET	28.2	-396.7	2.2
			CHANNELS 3  Xrotation Yrotation Zrotation
			JOINT right_ankle
			{
				OFFSET	11.7	-411.3	35.4
				CHANNELS 3  Xrotation Yrotation Zrotation
				JOINT right_toes
				{
					OFFSET	0	-60	-88.6
					CHANNELS 3  Xrotation Yrotation Zrotation
					JOINT right_foot_ee
					{
						OFFSET	22.5	-16.5	-42.2
						CHANNELS 3  Xrotation Yrotation Zrotation
						End Site
						{
							OFFSET	1	0	0
						}
					}
				}
			}
		}
	}
}
MOTION
Frames: 10
Frame Time: 0.02
391.555 721.904 -1204.45 -166.14871894 -42.8927621491 -170.196043682 2.67004 0.0483986 0.00959604 2.67004 0.0476899 0.0126563 2.67005 0.0449602 0.0203245 2.67005 0.0476059 0.0129688 -6.43007 -18.2627 3.18475 -6.28433 -36.1854 -0.403988 -0.0 0.0 -0.0 -4.14908 23.37 -3.00217 -0.2741 -40.6183 85.0737 1.0261 -26.9436 0.245816 -6.94604 -0.295893 0.836671 1.19797 10.2743 12.0078 -0.0 0.0 -0.0 11.4634 18.2961 -22.8182 43.6325 -54.7751 -39.6651 0.204954 5.79742 -0.0103779 84.5572 4.37358 8.84551 -2.6439 -28.9467 2.93121 0.0 0.0 0.0 22.0517 -8.23131 -5.39793 -16.6038 0.320614 2.51894 22.6602 2.10355 -3.06557 -18.6112 0.0 0.0 -0.0 0.0 -0.0 14.6093 -1.65514 3.64859 -19.3751 -0.30255 -2.94373 11.0164 -29.9279 1.68389 39.7334 -0.0 -0.0 0.0 0.0 0.0 
391.555 721.904 -1204.45 -166.276959876 -42.3246063073 -170.38547006 2.67004 0.0483986 0.00959604 2.67004 0.0476899 0.0126563 2.67005 0.0449602 0.0203245 2.67005 0.0476059 0.0129688 -6.43007 -18.2627 3.18475 -6.28433 -36.1854 -0.403988 -0.0 0.0 -0.0 -4.14908 23.37 -3.00217 -0.2741 -40.6183 85.0737 1.0261 -26.9436 0.245816 -6.94604 -0.295893 0.836671 1.19797 10.2743 12.0078 -0.0 0.0 -0.0 11.4634 18.2961 -22.8182 43.6325 -54.7751 -39.6651 0.204954 5.79742 -0.0103779 84.5572 4.37358 8.84551 -2.6439 -28.9467 2.93121 0.0 0.0 0.0 22.0517 -8.23131 -5.39793 -16.6038 0.320614 2.51894 22.6602 2.10355 -3.06557 -18.6112 0.0 0.0 -0.0 0.0 -0.0 14.6093 -1.65514 3.64859 -19.3751 -0.30255 -2.94373 11.0164 -29.9279 1.68389 39.7334 -0.0 -0.0 0.0 0.0 0.0 
391.555 721.904 -1204.45 -166.307942565 -42.1847875838 -170.431545907 2.67004 0.0483986 0.00959604 2.67004 0.0476899 0.0126563 2.67005 0.0449602 0.0203245 2.67005 0.0476059 0.0129688 -6.43007 -18.2627 3.18475 -6.28433 -36.1854 -0.403988 -0.0 0.0 -0.0 -4.14908 23.37 -3.00217 -0.2741 -40.6183 85.0737 1.0261 -26.9436 0.245816 -6.94604 -0.295893 0.836671 1.19797 10.2743 12.0078 -0.0 0.0 -0.0 11.4634 18.2961 -22.8182 43.6325 -54.7751 -39.6651 0.204954 5.79742 -0.0103779 84.5572 4.37358 8.84551 -2.6439 -28.9467 2.93121 0.0 0.0 0.0 22.0517 -8.23131 -5.39793 -16.6038 0.320614 2.51894 22.6602 2.10355 -3.06557 -18.6112 0.0 0.0 -0.0 0.0 -0.0 14.6093 -1.65514 3.64859 -19.3751 -0.30255 -2.94373 11.0164 -29.9279 1.68389 39.7334 -0.0 -0.0 0.0 0.0 0.0 
391.555 721.904 -1204.45 -166.485488592 -41.3634521762 -170.698046117 2.67004 0.0483986 0.00959604 2.67004 0.0476899 0.0126563 2.67005 0.0449602 0.0203245 2.67005 0.0476059 0.0129688 -6.43007 -18.2627 3.18475 -6.28433 -36.1854 -0.403988 -0.0 0.0 -0.0 -4.14908 23.37 -3.00217 -0.2741 -40.6183 85.0737 1.0261 -26.9436 0.245816 -6.94604 -0.295893 0.836671 1.19797 10.2743 12.0078 -0.0 0.0 -0.0 11.4634 18.2961 -22.8182 43.6325 -54.7751 -39.6651 0.204954 5.79742 -0.0103779 84.5572 4.37358 8.84551 -2.6439 -28.9467 2.93121 0.0 0.0 0.0 22.0517 -8.23131 -5.39793 -16.6038 0.320614 2.51894 22.6602 2.10355 -3.06557 -18.6112 0.0 0.0 -0.0 0.0 -0.0 14.6093 -1.65514 3.64859 -19.3751 -0.30255 -2.94373 11.0164 -29.9279 1.68389 39.7334 -0.0 -0.0 0.0 0.0 0.0 
404.48778463 716.155 -1205.68038315 -167.695221427 -41.5426054588 -171.511641013 2.63969 0.0396727 -0.0183288 2.63969 0.0407586 -0.0157672 2.63968 0.0428009 -0.00882907 2.63968 0.0408694 -0.0154779 -7.56201 -18.325 1.38225 -7.64196 -35.1731 -2.63179 -0.0 0.0 -0.0 -4.22245 23.303 -3.11973 0.0690393 -41.2438 86.0499 0.989602 -26.1145 0.229515 -7.08855 -0.30302 0.853444 1.2257 11.2737 12.5544 -0.0 0.0 -0.0 11.0887 16.5333 -22.0631 43.7611 -54.4173 -40.8747 0.20578 5.82061 -0.0104615 84.6353 4.38291 8.84918 -2.66772 -28.5799 3.25369 0.0 0.0 0.0 22.4618 -5.65832 -5.1169 -19.4877 0.301382 2.96096 25.6086 4.57745 -3.40302 -18.0042 0.0 0.0 -0.0 0.0 -0.0 14.4435 -1.61619 3.82054 -21.2655 -0.278452 -3.23278 12.1675 -29.5774 1.84852 40.1315 -0.0 -0.0 0.0 0.0 0.0 
404.463438574 716.155 -1205.91389022 -167.494593402 -42.5538806562 -171.212099193 2.63969 0.0396727 -0.0183288 2.63969 0.0407586 -0.0157672 2.63968 0.0428009 -0.00882907 2.63968 0.0408694 -0.0154779 -7.56201 -18.325 1.38225 -7.64196 -35.1731 -2.63179 -0.0 0.0 -0.0 -4.22245 23.303 -3.11973 0.0690393 -41.2438 86.0499 0.989602 -26.1145 0.229515 -7.08855 -0.30302 0.853444 1.2257 11.2737 12.5544 -0.0 0.0 -0.0 11.0887 16.5333 -22.0631 43.7611 -54.4173 -40.8747 0.20578 5.82061 -0.0104615 84.6353 4.38291 8.84918 -2.66772 -28.5799 3.25369 0.0 0.0 0.0 22.4618 -5.65832 -5.1169 -19.4877 0.301382 2.96096 25.6086 4.57745 -3.40302 -18.0042 0.0 0.0 -0.0 0.0 -0.0 14.4435 -1.61619 3.82054 -21.2655 -0.278452 -3.23278 12.1675 -29.5774 1.84852 40.1315 -0.0 -0.0 0.0 0.0 0.0 
420.635162095 712.079 -1211.38050421 -167.887226033 -41.9477534725 -170.609343992 2.70815 -0.0523074 0.0378603 2.70815 -0.0546106 0.0344551 2.70811 -0.0595154 0.0250476 2.70812 -0.0548127 0.0341326 -9.94691 -18.095 1.18427 -10.3945 -34.8935 -3.6087 -0.0 0.0 -0.0 -4.01704 23.4706 -2.79606 -2.98571 -41.5457 84.4367 0.950962 -25.2237 0.212776 -6.75066 -0.28619 0.813645 1.27877 10.5367 12.634 -0.0 0.0 -0.0 10.3888 13.164 -20.6242 43.9704 -55.3323 -44.3707 0.187095 5.29525 -0.00865174 84.5051 4.36736 8.84306 -2.8864 -29.0936 4.15323 0.0 0.0 0.0 23.8457 -0.148263 -5.55326 -21.4524 0.275551 3.26131 26.1964 8.33253 -3.46982 -16.9369 0.0 0.0 -0.0 0.0 -0.0 14.4699 -1.2096 4.11466 -22.3124 -0.261006 -3.39247 12.9164 -28.6664 1.94535 40.1448 -0.0 -0.0 0.0 0.0 0.0 
441.015726789 711.892 -1223.51665273 -167.719299415 -42.6866759339 -170.296317897 2.56802 0.00710415 -0.0643048 2.56803 0.0111816 -0.0637225 2.56801 0.0216144 -0.0609787 2.56801 0.0117127 -0.063627 -9.47932 -18.3836 0.337742 -9.86049 -34.8199 -4.34281 -0.0 0.0 -0.0 -3.41234 22.4634 -2.17348 -2.66729 -41.6333 83.4548 0.950538 -25.2139 0.212596 -6.81785 -0.289518 0.821567 1.26726 10.7955 12.6527 -0.0 0.0 -0.0 10.3934 13.1122 -20.6358 45.4661 -54.7757 -43.4 0.189554 5.36446 -0.00888023 84.6925 4.38975 8.85186 -2.87253 -28.8761 4.19763 0.0 0.0 0.0 23.8266 1.72697 -5.01582 -22.0204 0.266166 3.34796 27.6403 8.19705 -3.63242 -16.7053 0.0 0.0 -0.0 0.0 -0.0 13.9281 5.5695 3.79714 -23.2084 -0.243759 -3.52888 12.9019 -28.3569 1.93929 39.8909 -0.0 -0.0 0.0 0.0 0.0 
440.80663982 711.892 -1224.05042643 -167.595833761 -43.2919875525 -170.115249226 2.56802 0.00710415 -0.0643048 2.56803 0.0111816 -0.0637225 2.56801 0.0216144 -0.0609787 2.56801 0.0117127 -0.063627 -9.47932 -18.3836 0.337742 -9.86049 -34.8199 -4.34281 -0.0 0.0 -0.0 -3.41234 22.4634 -2.17348 -2.66729 -41.6333 83.4548 0.950538 -25.2139 0.212596 -6.81785 -0.289518 0.821567 1.26726 10.7955 12.6527 -0.0 0.0 -0.0 10.3934 13.1122 -20.6358 45.4661 -54.7757 -43.4 0.189554 5.36446 -0.00888023 84.6925 4.38975 8.85186 -2.87253 -28.8761 4.19763 0.0 0.0 0.0 23.8266 1.72697 -5.01582 -22.0204 0.266166 3.34796 27.6403 8.19705 -3.63242 -16.7053 0.0 0.0 -0.0 0.0 -0.0 13.9281 5.5695 3.79714 -23.2084 -0.243759 -3.52888 12.9019 -28.3569 1.93929 39.8909 -0.0 -0.0 0.0 0.0 0.0 
440.987924506 711.892 -1223.58861844 -167.702905706 -42.7681544106 -170.272156609 2.56802 0.00710415 -0.0643048 2.56803 0.0111816 -0.0637225 2.56801 0.0216144 -0.0609787 2.56801 0.0117127 -0.063627 -9.47932 -18.3836 0.337742 -9.86049 -34.8199 -4.34281 -0.0 0.0 -0.0 -3.41234 22.4634 -2.17348 -2.66729 -41.6333 83.4548 0.950538 -25.2139 0.212596 -6.81785 -0.289518 0.821567 1.26726 10.7955 12.6527 -0.0 0.0 -0.0 10.3934 13.1122 -20.6358 45.4661 -54.7757 -43.4 0.189554 5.36446 -0.00888023 84.6925 4.38975 8.85186 -2.87253 -28.8761 4.19763 0.0 0.0 0.0 23.8266 1.72697 -5.01582 -22.0204 0.266166 3.34796 27.6403 8.19705 -3.63242 -16.7053 0.0 0.0 -0.0 0.0 -0.0 13.9281 5.5695 3.79714 -23.2084 -0.243759 -3.52888 12.9019 -28.3569 1.93929 39.8909 -0.0 -0.0 0.0 0.0 0.0 
